<svg width="25" height="25" viewBox="0 0 25 25" fill="none" xmlns="http://www.w3.org/2000/svg">
<path d="M22.3167 24.125L14.1792 15.9875C13.5333 16.5042 12.7906 16.9132 11.951 17.2146C11.1115 17.516 10.2181 17.6667 9.27083 17.6667C6.92431 17.6667 4.93837 16.854 3.31302 15.2286C1.68767 13.6033 0.875 11.6174 0.875 9.27083C0.875 6.92431 1.68767 4.93837 3.31302 3.31302C4.93837 1.68767 6.92431 0.875 9.27083 0.875C11.6174 0.875 13.6033 1.68767 15.2286 3.31302C16.854 4.93837 17.6667 6.92431 17.6667 9.27083C17.6667 10.2181 17.516 11.1115 17.2146 11.951C16.9132 12.7906 16.5042 13.5333 15.9875 14.1792L24.125 22.3167L22.3167 24.125ZM9.27083 15.0833C10.8854 15.0833 12.2578 14.5182 13.388 13.388C14.5182 12.2578 15.0833 10.8854 15.0833 9.27083C15.0833 7.65625 14.5182 6.28385 13.388 5.15365C12.2578 4.02344 10.8854 3.45833 9.27083 3.45833C7.65625 3.45833 6.28385 4.02344 5.15365 5.15365C4.02344 6.28385 3.45833 7.65625 3.45833 9.27083C3.45833 10.8854 4.02344 12.2578 5.15365 13.388C6.28385 14.5182 7.65625 15.0833 9.27083 15.0833Z" fill="#1D1B20"/>
</svg>
